<svg viewBox="0 0 96 96" xmlns="http://www.w3.org/2000/svg" shape-rendering="crispEdges">
  <!-- Row 0: ear tips -->
  <rect x="18" y="6" width="6" height="6" fill="#7A3B1B"/>
  <rect x="24" y="6" width="6" height="6" fill="#7A3B1B"/>
  <rect x="66" y="6" width="6" height="6" fill="#7A3B1B"/>
  <rect x="72" y="6" width="6" height="6" fill="#7A3B1B"/>
  <!-- Row 1: ears -->
  <rect x="12" y="12" width="6" height="6" fill="#7A3B1B"/>
  <rect x="18" y="12" width="6" height="6" fill="#C87341"/>
  <rect x="24" y="12" width="6" height="6" fill="#C87341"/>
  <rect x="30" y="12" width="6" height="6" fill="#7A3B1B"/>
  <rect x="60" y="12" width="6" height="6" fill="#7A3B1B"/>
  <rect x="66" y="12" width="6" height="6" fill="#C87341"/>
  <rect x="72" y="12" width="6" height="6" fill="#C87341"/>
  <rect x="78" y="12" width="6" height="6" fill="#7A3B1B"/>
  <!-- Row 2: ears inner + head sides -->
  <rect x="12" y="18" width="6" height="6" fill="#7A3B1B"/>
  <rect x="18" y="18" width="6" height="6" fill="#C87341"/>
  <rect x="24" y="18" width="6" height="6" fill="#C87341"/>
  <rect x="30" y="18" width="6" height="6" fill="#C87341"/>
  <rect x="36" y="18" width="6" height="6" fill="#7A3B1B"/>
  <rect x="42" y="18" width="6" height="6" fill="#7A3B1B"/>
  <rect x="48" y="18" width="6" height="6" fill="#7A3B1B"/>
  <rect x="54" y="18" width="6" height="6" fill="#7A3B1B"/>
  <rect x="60" y="18" width="6" height="6" fill="#C87341"/>
  <rect x="66" y="18" width="6" height="6" fill="#C87341"/>
  <rect x="72" y="18" width="6" height="6" fill="#C87341"/>
  <rect x="78" y="18" width="6" height="6" fill="#7A3B1B"/>
  <!-- Row 3: top of head -->
  <rect x="18" y="24" width="6" height="6" fill="#7A3B1B"/>
  <rect x="24" y="24" width="6" height="6" fill="#C87341"/>
  <rect x="30" y="24" width="6" height="6" fill="#C87341"/>
  <rect x="36" y="24" width="6" height="6" fill="#C87341"/>
  <rect x="42" y="24" width="6" height="6" fill="#C87341"/>
  <rect x="48" y="24" width="6" height="6" fill="#C87341"/>
  <rect x="54" y="24" width="6" height="6" fill="#C87341"/>
  <rect x="60" y="24" width="6" height="6" fill="#C87341"/>
  <rect x="66" y="24" width="6" height="6" fill="#C87341"/>
  <rect x="72" y="24" width="6" height="6" fill="#7A3B1B"/>
  <!-- Row 4: face cheeks -->
  <rect x="24" y="30" width="6" height="6" fill="#F0EBE0"/>
  <rect x="30" y="30" width="6" height="6" fill="#F0EBE0"/>
  <rect x="36" y="30" width="6" height="6" fill="#C87341"/>
  <rect x="42" y="30" width="6" height="6" fill="#C87341"/>
  <rect x="48" y="30" width="6" height="6" fill="#C87341"/>
  <rect x="54" y="30" width="6" height="6" fill="#C87341"/>
  <rect x="60" y="30" width="6" height="6" fill="#F0EBE0"/>
  <rect x="66" y="30" width="6" height="6" fill="#F0EBE0"/>
  <!-- Row 5: eyes -->
  <rect x="24" y="36" width="6" height="6" fill="#F0EBE0"/>
  <rect x="30" y="36" width="6" height="6" fill="#2C1A0E"/>
  <rect x="36" y="36" width="6" height="6" fill="#F0EBE0"/>
  <rect x="42" y="36" width="6" height="6" fill="#C87341"/>
  <rect x="48" y="36" width="6" height="6" fill="#C87341"/>
  <rect x="54" y="36" width="6" height="6" fill="#F0EBE0"/>
  <rect x="60" y="36" width="6" height="6" fill="#2C1A0E"/>
  <rect x="66" y="36" width="6" height="6" fill="#F0EBE0"/>
  <!-- Row 6: lower face -->
  <rect x="24" y="42" width="6" height="6" fill="#F0EBE0"/>
  <rect x="30" y="42" width="6" height="6" fill="#F0EBE0"/>
  <rect x="36" y="42" width="6" height="6" fill="#F0EBE0"/>
  <rect x="42" y="42" width="6" height="6" fill="#C87341"/>
  <rect x="48" y="42" width="6" height="6" fill="#C87341"/>
  <rect x="54" y="42" width="6" height="6" fill="#F0EBE0"/>
  <rect x="60" y="42" width="6" height="6" fill="#F0EBE0"/>
  <rect x="66" y="42" width="6" height="6" fill="#F0EBE0"/>
  <!-- Row 7: nose/muzzle -->
  <rect x="30" y="48" width="6" height="6" fill="#C87341"/>
  <rect x="36" y="48" width="6" height="6" fill="#C87341"/>
  <rect x="42" y="48" width="6" height="6" fill="#2C1A0E"/>
  <rect x="48" y="48" width="6" height="6" fill="#2C1A0E"/>
  <rect x="54" y="48" width="6" height="6" fill="#C87341"/>
  <rect x="60" y="48" width="6" height="6" fill="#C87341"/>
  <!-- Row 8: upper body -->
  <rect x="18" y="54" width="6" height="6" fill="#C87341"/>
  <rect x="24" y="54" width="6" height="6" fill="#C87341"/>
  <rect x="30" y="54" width="6" height="6" fill="#C87341"/>
  <rect x="36" y="54" width="6" height="6" fill="#C87341"/>
  <rect x="42" y="54" width="6" height="6" fill="#C87341"/>
  <rect x="48" y="54" width="6" height="6" fill="#C87341"/>
  <rect x="54" y="54" width="6" height="6" fill="#C87341"/>
  <rect x="60" y="54" width="6" height="6" fill="#C87341"/>
  <rect x="66" y="54" width="6" height="6" fill="#C87341"/>
  <rect x="72" y="54" width="6" height="6" fill="#C87341"/>
  <!-- Row 9: lower body + tail -->
  <rect x="12" y="60" width="6" height="6" fill="#C87341"/>
  <rect x="18" y="60" width="6" height="6" fill="#C87341"/>
  <rect x="24" y="60" width="6" height="6" fill="#C87341"/>
  <rect x="42" y="60" width="6" height="6" fill="#C87341"/>
  <rect x="48" y="60" width="6" height="6" fill="#C87341"/>
  <rect x="66" y="60" width="6" height="6" fill="#C87341"/>
  <rect x="72" y="60" width="6" height="6" fill="#C87341"/>
  <rect x="78" y="60" width="6" height="6" fill="#E07830"/>
  <!-- Row 10: legs + tail tip -->
  <rect x="12" y="66" width="6" height="6" fill="#C87341"/>
  <rect x="18" y="66" width="6" height="6" fill="#C87341"/>
  <rect x="42" y="66" width="6" height="6" fill="#C87341"/>
  <rect x="48" y="66" width="6" height="6" fill="#C87341"/>
  <rect x="72" y="66" width="6" height="6" fill="#C87341"/>
  <rect x="78" y="66" width="6" height="6" fill="#F0EBE0"/>
  <!-- Row 11: feet -->
  <rect x="12" y="72" width="6" height="6" fill="#7A3B1B"/>
  <rect x="18" y="72" width="6" height="6" fill="#7A3B1B"/>
  <rect x="42" y="72" width="6" height="6" fill="#7A3B1B"/>
  <rect x="48" y="72" width="6" height="6" fill="#7A3B1B"/>
</svg>
